<svg xmlns="http://www.w3.org/2000/svg" viewBox="0 0 1200 600" fill="none">
  <rect width="1200" height="600" fill="#1a2e2a"/>
  <rect x="0" y="0" width="1200" height="600" fill="url(#grad)" opacity="0.6"/>
  <defs>
    <linearGradient id="grad" x1="0" y1="0" x2="1" y2="1">
      <stop offset="0%" stop-color="#2d5a4a"/>
      <stop offset="100%" stop-color="#1a3a2e"/>
    </linearGradient>
  </defs>
  <rect x="100" y="150" width="300" height="400" rx="8" fill="#3a6a5a" opacity="0.7" stroke="#e8c87a" stroke-width="2"/>
  <rect x="450" y="120" width="300" height="430" rx="8" fill="#4a7a6a" opacity="0.8" stroke="#e8c87a" stroke-width="2"/>
  <rect x="800" y="180" width="300" height="370" rx="8" fill="#3a6a5a" opacity="0.7" stroke="#e8c87a" stroke-width="2"/>
  <rect x="150" y="200" width="200" height="30" rx="4" fill="#e8c87a" opacity="0.3"/>
  <rect x="500" y="170" width="200" height="30" rx="4" fill="#e8c87a" opacity="0.4"/>
  <rect x="850" y="230" width="200" height="30" rx="4" fill="#e8c87a" opacity="0.3"/>
  <rect x="130" y="380" width="240" height="100" rx="6" fill="#1a2e2a" opacity="0.6"/>
  <circle cx="250" cy="430" r="20" fill="#e8c87a" opacity="0.2"/>
  <circle cx="200" cy="450" r="12" fill="#e8c87a" opacity="0.15"/>
  <circle cx="300" cy="445" r="16" fill="#e8c87a" opacity="0.18"/>
  <rect x="480" y="380" width="240" height="100" rx="6" fill="#1a2e2a" opacity="0.6"/>
  <rect x="830" y="400" width="240" height="100" rx="6" fill="#1a2e2a" opacity="0.6"/>
</svg>